<mxfile host="app.diagrams.net" modified="2024-05-24T17:28:40.030Z" agent="Mozilla/5.0 (Macintosh; Intel Mac OS X 10_15_7) AppleWebKit/605.1.15 (KHTML, like Gecko) Version/17.5 Safari/605.1.15" version="24.4.8" etag="d8qWavM4waGlqk8bqCSY" type="github">
  <diagram name="Page-1" id="akyadBzuyOBm6izmosZU">
    <mxGraphModel>
      <root>
        <mxCell id="0" />
        <mxCell id="1" parent="0" />
      </root>
    </mxGraphModel>
  </diagram>
</mxfile>
